<?xml version="1.0" encoding="UTF-8" standalone="no"?>
<!DOCTYPE svg PUBLIC "-//W3C//DTD SVG 1.1//EN"
 "http://www.w3.org/Graphics/SVG/1.1/DTD/svg11.dtd">
<!-- Generated by graphviz version 2.28.0 (20120228.1926)
 -->
<!-- Title: system_struct Pages: 1 -->
<svg width="417pt" height="1756pt"
 viewBox="0.00 0.00 417.00 1756.00" xmlns="http://www.w3.org/2000/svg" xmlns:xlink="http://www.w3.org/1999/xlink">
<g id="graph1" class="graph" transform="scale(1 1) rotate(0) translate(4 1752)">
<title>system_struct</title>
<polygon fill="white" stroke="white" points="-4,5 -4,-1752 414,-1752 414,5 -4,5"/>
<!-- buffer_head_hash_table -->
<g id="node1" class="node"><title>buffer_head_hash_table</title>
<polygon fill="none" stroke="black" points="7,-1562.5 7,-1743.5 177,-1743.5 177,-1562.5 7,-1562.5"/>
<polygon fill="red" stroke="red" points="10,-1719 10,-1740 174,-1740 174,-1719 10,-1719"/>
<polygon fill="none" stroke="black" points="10,-1719 10,-1740 174,-1740 174,-1719 10,-1719"/>
<text text-anchor="start" x="28.5" y="-1726.3" font-family="Times,serif" font-size="14.00">Buffer head hash table</text>
<polygon fill="none" stroke="black" points="10,-1697 10,-1717 174,-1717 174,-1697 10,-1697"/>
<text text-anchor="start" x="20" y="-1703.8" font-family="Times,serif" font-size="14.00">address to buffer_head 1 </text>
<polygon fill="none" stroke="black" points="10,-1675 10,-1695 174,-1695 174,-1675 10,-1675"/>
<text text-anchor="start" x="20" y="-1681.8" font-family="Times,serif" font-size="14.00">address to buffer_head 2 </text>
<polygon fill="none" stroke="black" points="10,-1653 10,-1673 174,-1673 174,-1653 10,-1653"/>
<text text-anchor="start" x="20" y="-1659.8" font-family="Times,serif" font-size="14.00">address to buffer_head 3 </text>
<polygon fill="none" stroke="black" points="10,-1631 10,-1651 174,-1651 174,-1631 10,-1631"/>
<text text-anchor="start" x="20" y="-1637.8" font-family="Times,serif" font-size="14.00">address to buffer_head 4 </text>
<polygon fill="none" stroke="black" points="10,-1609 10,-1629 174,-1629 174,-1609 10,-1609"/>
<text text-anchor="start" x="20" y="-1615.8" font-family="Times,serif" font-size="14.00">address to buffer_head 5 </text>
<polygon fill="none" stroke="black" points="10,-1587 10,-1607 174,-1607 174,-1587 10,-1587"/>
<text text-anchor="start" x="83.5" y="-1593.8" font-family="Times,serif" font-size="14.00"> ... </text>
<polygon fill="none" stroke="black" points="10,-1565 10,-1585 174,-1585 174,-1565 10,-1565"/>
<text text-anchor="start" x="13.5" y="-1571.8" font-family="Times,serif" font-size="14.00">address to buffer_head 307 </text>
</g>
<!-- buffer_head -->
<g id="node2" class="node"><title>buffer_head</title>
<polygon fill="steelblue" stroke="steelblue" points="140,-1496.5 44,-1496.5 44,-1307.5 140,-1307.5 140,-1496.5"/>
<polygon fill="none" stroke="black" points="52,-1311.5 52,-1492.5 132,-1492.5 132,-1311.5 52,-1311.5"/>
<polygon fill="red" stroke="red" points="55,-1468 55,-1489 129,-1489 129,-1468 55,-1468"/>
<polygon fill="none" stroke="black" points="55,-1468 55,-1489 129,-1489 129,-1468 55,-1468"/>
<text text-anchor="start" x="58.5" y="-1475.3" font-family="Times,serif" font-size="14.00">Buffer head</text>
<polygon fill="none" stroke="black" points="55,-1446 55,-1466 129,-1466 129,-1446 55,-1446"/>
<text text-anchor="start" x="73.5" y="-1452.8" font-family="Times,serif" font-size="14.00">b_data</text>
<polygon fill="none" stroke="black" points="55,-1424 55,-1444 129,-1444 129,-1424 55,-1424"/>
<text text-anchor="start" x="63" y="-1430.8" font-family="Times,serif" font-size="14.00">b_blocknr</text>
<polygon fill="none" stroke="black" points="55,-1402 55,-1422 129,-1422 129,-1402 55,-1402"/>
<text text-anchor="start" x="60.5" y="-1408.8" font-family="Times,serif" font-size="14.00">b_uptodate</text>
<polygon fill="none" stroke="black" points="55,-1380 55,-1400 129,-1400 129,-1380 55,-1380"/>
<text text-anchor="start" x="75" y="-1386.8" font-family="Times,serif" font-size="14.00">b_dirt</text>
<polygon fill="none" stroke="black" points="55,-1358 55,-1378 129,-1378 129,-1358 55,-1358"/>
<text text-anchor="start" x="69" y="-1364.8" font-family="Times,serif" font-size="14.00">b_count</text>
<polygon fill="none" stroke="black" points="55,-1336 55,-1356 129,-1356 129,-1336 55,-1336"/>
<text text-anchor="start" x="69" y="-1342.8" font-family="Times,serif" font-size="14.00">b_block</text>
<polygon fill="none" stroke="black" points="55,-1314 55,-1334 129,-1334 129,-1314 55,-1314"/>
<text text-anchor="start" x="87" y="-1320.8" font-family="Times,serif" font-size="14.00">...</text>
</g>
<!-- buffer_head_hash_table&#45;&gt;buffer_head -->
<g id="edge2" class="edge"><title>buffer_head_hash_table:1&#45;&gt;buffer_head</title>
<path fill="none" stroke="black" d="M175,-1707C208.112,-1707 182.085,-1590.11 174,-1558 167.766,-1533.24 156.816,-1508.07 144.909,-1485.41"/>
<polygon fill="black" stroke="black" points="147.948,-1483.67 140.125,-1476.53 141.785,-1486.99 147.948,-1483.67"/>
</g>
<!-- buffer_data -->
<g id="node8" class="node"><title>buffer_data</title>
<polygon fill="grey" stroke="grey" points="164,-1169 20,-1169 20,-1133 164,-1133 164,-1169"/>
<text text-anchor="middle" x="92" y="-1147.3" font-family="Times,serif" font-size="14.00">data in buffer memory</text>
</g>
<!-- buffer_head&#45;&gt;buffer_data -->
<g id="edge4" class="edge"><title>buffer_head:data&#45;&gt;buffer_data</title>
<path fill="none" stroke="black" d="M130,-1456C185.625,-1456 124.987,-1253.06 100.937,-1178.81"/>
<polygon fill="black" stroke="black" points="104.236,-1177.63 97.8018,-1169.22 97.5823,-1179.81 104.236,-1177.63"/>
<text text-anchor="middle" x="158" y="-1268.3" font-family="Times,serif" font-size="14.00">address to</text>
</g>
<!-- inode_table -->
<g id="node3" class="node"><title>inode_table</title>
<polygon fill="none" stroke="black" points="191,-620.5 191,-801.5 289,-801.5 289,-620.5 191,-620.5"/>
<polygon fill="red" stroke="red" points="194,-777 194,-798 286,-798 286,-777 194,-777"/>
<polygon fill="none" stroke="black" points="194,-777 194,-798 286,-798 286,-777 194,-777"/>
<text text-anchor="start" x="197.5" y="-784.3" font-family="Times,serif" font-size="14.00">m_inode table </text>
<polygon fill="none" stroke="black" points="194,-755 194,-775 286,-775 286,-755 194,-755"/>
<text text-anchor="start" x="216.5" y="-761.8" font-family="Times,serif" font-size="14.00">inode 1 </text>
<polygon fill="none" stroke="black" points="194,-733 194,-753 286,-753 286,-733 194,-733"/>
<text text-anchor="start" x="216.5" y="-739.8" font-family="Times,serif" font-size="14.00">inode 2 </text>
<polygon fill="none" stroke="black" points="194,-711 194,-731 286,-731 286,-711 194,-711"/>
<text text-anchor="start" x="216.5" y="-717.8" font-family="Times,serif" font-size="14.00">inode 3 </text>
<polygon fill="none" stroke="black" points="194,-689 194,-709 286,-709 286,-689 194,-689"/>
<text text-anchor="start" x="216.5" y="-695.8" font-family="Times,serif" font-size="14.00">inode 4 </text>
<polygon fill="none" stroke="black" points="194,-667 194,-687 286,-687 286,-667 194,-667"/>
<text text-anchor="start" x="216.5" y="-673.8" font-family="Times,serif" font-size="14.00">inode 5 </text>
<polygon fill="none" stroke="black" points="194,-645 194,-665 286,-665 286,-645 194,-645"/>
<text text-anchor="start" x="231.5" y="-651.8" font-family="Times,serif" font-size="14.00"> ... </text>
<polygon fill="none" stroke="black" points="194,-623 194,-643 286,-643 286,-623 194,-623"/>
<text text-anchor="start" x="213" y="-629.8" font-family="Times,serif" font-size="14.00">inode 32 </text>
</g>
<!-- m_inode -->
<g id="node9" class="node"><title>m_inode</title>
<polygon fill="grey" stroke="black" points="103,-149 103,-563 377,-563 377,-149 103,-149"/>
<text text-anchor="middle" x="240" y="-547.8" font-family="Times,serif" font-size="14.00">unsigned short i_mode;</text>
<polyline fill="none" stroke="black" points="103,-540 377,-540 "/>
<text text-anchor="middle" x="240" y="-524.8" font-family="Times,serif" font-size="14.00">unsigned short i_uid;</text>
<polyline fill="none" stroke="black" points="103,-517 377,-517 "/>
<text text-anchor="middle" x="240" y="-501.8" font-family="Times,serif" font-size="14.00">unsigned long i_size;</text>
<polyline fill="none" stroke="black" points="103,-494 377,-494 "/>
<text text-anchor="middle" x="240" y="-478.8" font-family="Times,serif" font-size="14.00">unsigned long i_mtimeb unsigned char i_gid;</text>
<polyline fill="none" stroke="black" points="103,-471 377,-471 "/>
<text text-anchor="middle" x="240" y="-455.8" font-family="Times,serif" font-size="14.00">unsigned char i_nlinks;</text>
<polyline fill="none" stroke="black" points="103,-448 377,-448 "/>
<text text-anchor="middle" x="240" y="-432.8" font-family="Times,serif" font-size="14.00">unsigned short i_zone[9];</text>
<polyline fill="none" stroke="black" points="103,-425 377,-425 "/>
<text text-anchor="middle" x="240" y="-409.8" font-family="Times,serif" font-size="14.00">struct task_struct * i_wait;</text>
<polyline fill="none" stroke="black" points="103,-402 377,-402 "/>
<text text-anchor="middle" x="240" y="-386.8" font-family="Times,serif" font-size="14.00">unsigned long i_atime;</text>
<polyline fill="none" stroke="black" points="103,-379 377,-379 "/>
<text text-anchor="middle" x="240" y="-363.8" font-family="Times,serif" font-size="14.00">unsigned long i_ctime;</text>
<polyline fill="none" stroke="black" points="103,-356 377,-356 "/>
<text text-anchor="middle" x="240" y="-340.8" font-family="Times,serif" font-size="14.00">unsigned short i_dev;</text>
<polyline fill="none" stroke="black" points="103,-333 377,-333 "/>
<text text-anchor="middle" x="240" y="-317.8" font-family="Times,serif" font-size="14.00">unsigned short i_num;</text>
<polyline fill="none" stroke="black" points="103,-310 377,-310 "/>
<text text-anchor="middle" x="240" y="-294.8" font-family="Times,serif" font-size="14.00">unsigned short i_count;</text>
<polyline fill="none" stroke="black" points="103,-287 377,-287 "/>
<text text-anchor="middle" x="240" y="-271.8" font-family="Times,serif" font-size="14.00">unsigned char i_lock;</text>
<polyline fill="none" stroke="black" points="103,-264 377,-264 "/>
<text text-anchor="middle" x="240" y="-248.8" font-family="Times,serif" font-size="14.00">unsigned char i_dirt;</text>
<polyline fill="none" stroke="black" points="103,-241 377,-241 "/>
<text text-anchor="middle" x="240" y="-225.8" font-family="Times,serif" font-size="14.00">unsigned char i_pipe;</text>
<polyline fill="none" stroke="black" points="103,-218 377,-218 "/>
<text text-anchor="middle" x="240" y="-202.8" font-family="Times,serif" font-size="14.00">unsigned char i_mount;</text>
<polyline fill="none" stroke="black" points="103,-195 377,-195 "/>
<text text-anchor="middle" x="240" y="-179.8" font-family="Times,serif" font-size="14.00">unsigned char i_seek;</text>
<polyline fill="none" stroke="black" points="103,-172 377,-172 "/>
<text text-anchor="middle" x="240" y="-156.8" font-family="Times,serif" font-size="14.00">unsigned char i_update;</text>
</g>
<!-- inode_table&#45;&gt;m_inode -->
<g id="edge6" class="edge"><title>inode_table&#45;&gt;m_inode</title>
<path fill="none" stroke="black" d="M240,-616.329C240,-602.721 240,-588.263 240,-573.407"/>
<polygon fill="black" stroke="black" points="243.5,-573.064 240,-563.064 236.5,-573.064 243.5,-573.064"/>
<text text-anchor="middle" x="279.5" y="-586.3" font-family="Times,serif" font-size="14.00">every entry is</text>
</g>
<!-- file_table -->
<g id="node4" class="node"><title>file_table</title>
<polygon fill="none" stroke="black" points="205.5,-1060.5 205.5,-1241.5 272.5,-1241.5 272.5,-1060.5 205.5,-1060.5"/>
<polygon fill="red" stroke="red" points="209,-1217 209,-1238 270,-1238 270,-1217 209,-1217"/>
<polygon fill="none" stroke="black" points="209,-1217 209,-1238 270,-1238 270,-1217 209,-1217"/>
<text text-anchor="start" x="212.5" y="-1224.3" font-family="Times,serif" font-size="14.00">file table </text>
<polygon fill="none" stroke="black" points="209,-1195 209,-1215 270,-1215 270,-1195 209,-1195"/>
<text text-anchor="start" x="222.5" y="-1201.8" font-family="Times,serif" font-size="14.00">file 1 </text>
<polygon fill="none" stroke="black" points="209,-1173 209,-1193 270,-1193 270,-1173 209,-1173"/>
<text text-anchor="start" x="222.5" y="-1179.8" font-family="Times,serif" font-size="14.00">file 2 </text>
<polygon fill="none" stroke="black" points="209,-1151 209,-1171 270,-1171 270,-1151 209,-1151"/>
<text text-anchor="start" x="222.5" y="-1157.8" font-family="Times,serif" font-size="14.00">file 3 </text>
<polygon fill="none" stroke="black" points="209,-1129 209,-1149 270,-1149 270,-1129 209,-1129"/>
<text text-anchor="start" x="222.5" y="-1135.8" font-family="Times,serif" font-size="14.00">file 4 </text>
<polygon fill="none" stroke="black" points="209,-1107 209,-1127 270,-1127 270,-1107 209,-1107"/>
<text text-anchor="start" x="222.5" y="-1113.8" font-family="Times,serif" font-size="14.00">file 5 </text>
<polygon fill="none" stroke="black" points="209,-1085 209,-1105 270,-1105 270,-1085 209,-1085"/>
<text text-anchor="start" x="231" y="-1091.8" font-family="Times,serif" font-size="14.00"> ... </text>
<polygon fill="none" stroke="black" points="209,-1063 209,-1083 270,-1083 270,-1063 209,-1063"/>
<text text-anchor="start" x="219.5" y="-1069.8" font-family="Times,serif" font-size="14.00">file 64 </text>
</g>
<!-- file_struct -->
<g id="node5" class="node"><title>file_struct</title>
<polygon fill="none" stroke="black" points="203.5,-862.5 203.5,-999.5 274.5,-999.5 274.5,-862.5 203.5,-862.5"/>
<polygon fill="red" stroke="red" points="207,-975 207,-996 272,-996 272,-975 207,-975"/>
<polygon fill="none" stroke="black" points="207,-975 207,-996 272,-996 272,-975 207,-975"/>
<text text-anchor="start" x="210.5" y="-982.3" font-family="Times,serif" font-size="14.00">file struct </text>
<polygon fill="none" stroke="black" points="207,-953 207,-973 272,-973 272,-953 207,-953"/>
<text text-anchor="start" x="217" y="-959.8" font-family="Times,serif" font-size="14.00">f_mode</text>
<polygon fill="none" stroke="black" points="207,-931 207,-951 272,-951 272,-931 207,-931"/>
<text text-anchor="start" x="220" y="-937.8" font-family="Times,serif" font-size="14.00">f_flags</text>
<polygon fill="none" stroke="black" points="207,-909 207,-929 272,-929 272,-909 207,-909"/>
<text text-anchor="start" x="218" y="-915.8" font-family="Times,serif" font-size="14.00">f_count</text>
<polygon fill="none" stroke="black" points="207,-887 207,-907 272,-907 272,-887 207,-887"/>
<text text-anchor="start" x="217.5" y="-893.8" font-family="Times,serif" font-size="14.00">f_inode</text>
<polygon fill="none" stroke="black" points="207,-865 207,-885 272,-885 272,-865 207,-865"/>
<text text-anchor="start" x="224" y="-871.8" font-family="Times,serif" font-size="14.00">f_pos</text>
</g>
<!-- file_table&#45;&gt;file_struct -->
<g id="edge15" class="edge"><title>file_table&#45;&gt;file_struct</title>
<path fill="none" stroke="black" d="M239,-1056.28C239,-1042.08 239,-1027.51 239,-1013.59"/>
<polygon fill="black" stroke="black" points="242.5,-1013.58 239,-1003.58 235.5,-1013.58 242.5,-1013.58"/>
<text text-anchor="middle" x="278.5" y="-1026.3" font-family="Times,serif" font-size="14.00">every entry is</text>
</g>
<!-- file_struct&#45;&gt;inode_table -->
<g id="edge17" class="edge"><title>file_struct:inode&#45;&gt;inode_table:x</title>
<path fill="none" stroke="black" d="M273,-897C377.263,-897 393.736,-670.346 297.037,-655.738"/>
<polygon fill="black" stroke="black" points="297.23,-652.243 287,-655 296.716,-659.224 297.23,-652.243"/>
<text text-anchor="middle" x="380" y="-828.3" font-family="Times,serif" font-size="14.00">address to</text>
</g>
<!-- task -->
<g id="node6" class="node"><title>task</title>
<polygon fill="none" stroke="black" points="211.5,-1573.5 211.5,-1732.5 264.5,-1732.5 264.5,-1573.5 211.5,-1573.5"/>
<polygon fill="red" stroke="red" points="215,-1708 215,-1729 262,-1729 262,-1708 215,-1708"/>
<polygon fill="none" stroke="black" points="215,-1708 215,-1729 262,-1729 262,-1708 215,-1708"/>
<text text-anchor="start" x="227" y="-1715.3" font-family="Times,serif" font-size="14.00">task</text>
<polygon fill="none" stroke="black" points="215,-1686 215,-1706 262,-1706 262,-1686 215,-1686"/>
<text text-anchor="start" x="221.5" y="-1692.8" font-family="Times,serif" font-size="14.00">task 1</text>
<polygon fill="none" stroke="black" points="215,-1664 215,-1684 262,-1684 262,-1664 215,-1664"/>
<text text-anchor="start" x="221.5" y="-1670.8" font-family="Times,serif" font-size="14.00">task 2</text>
<polygon fill="none" stroke="black" points="215,-1642 215,-1662 262,-1662 262,-1642 215,-1642"/>
<text text-anchor="start" x="221.5" y="-1648.8" font-family="Times,serif" font-size="14.00">task 3</text>
<polygon fill="none" stroke="black" points="215,-1620 215,-1640 262,-1640 262,-1620 215,-1620"/>
<text text-anchor="start" x="221.5" y="-1626.8" font-family="Times,serif" font-size="14.00">task 4</text>
<polygon fill="none" stroke="black" points="215,-1598 215,-1618 262,-1618 262,-1598 215,-1598"/>
<text text-anchor="start" x="233.5" y="-1604.8" font-family="Times,serif" font-size="14.00">...</text>
<polygon fill="none" stroke="black" points="215,-1576 215,-1596 262,-1596 262,-1576 215,-1576"/>
<text text-anchor="start" x="218.5" y="-1582.8" font-family="Times,serif" font-size="14.00">task 64</text>
</g>
<!-- task_struct -->
<g id="node7" class="node"><title>task_struct</title>
<polygon fill="none" stroke="black" points="170,-1298.5 170,-1505.5 308,-1505.5 308,-1298.5 170,-1298.5"/>
<text text-anchor="middle" x="239" y="-1490.3" font-family="Times,serif" font-size="14.00">...</text>
<polyline fill="none" stroke="black" points="170,-1482.5 308,-1482.5 "/>
<text text-anchor="middle" x="239" y="-1467.3" font-family="Times,serif" font-size="14.00">tty</text>
<polyline fill="none" stroke="black" points="170,-1459.5 308,-1459.5 "/>
<text text-anchor="middle" x="239" y="-1444.3" font-family="Times,serif" font-size="14.00">m_inode *pwd</text>
<polyline fill="none" stroke="black" points="170,-1436.5 308,-1436.5 "/>
<text text-anchor="middle" x="239" y="-1421.3" font-family="Times,serif" font-size="14.00">m_inode *root</text>
<polyline fill="none" stroke="black" points="170,-1413.5 308,-1413.5 "/>
<text text-anchor="middle" x="239" y="-1398.3" font-family="Times,serif" font-size="14.00">m_inode *executable</text>
<polyline fill="none" stroke="black" points="170,-1390.5 308,-1390.5 "/>
<text text-anchor="middle" x="239" y="-1375.3" font-family="Times,serif" font-size="14.00">close_on_exec</text>
<polyline fill="none" stroke="black" points="170,-1367.5 308,-1367.5 "/>
<text text-anchor="middle" x="239" y="-1352.3" font-family="Times,serif" font-size="14.00">file* flip[20]</text>
<polyline fill="none" stroke="black" points="170,-1344.5 308,-1344.5 "/>
<text text-anchor="middle" x="239" y="-1329.3" font-family="Times,serif" font-size="14.00">desc_struct ldt[3]</text>
<polyline fill="none" stroke="black" points="170,-1321.5 308,-1321.5 "/>
<text text-anchor="middle" x="239" y="-1306.3" font-family="Times,serif" font-size="14.00">tss_struct tss</text>
</g>
<!-- task&#45;&gt;task_struct -->
<g id="edge19" class="edge"><title>task:1&#45;&gt;task_struct</title>
<path fill="none" stroke="black" d="M263,-1696C338.56,-1696 318.701,-1598.01 288.515,-1515.37"/>
<polygon fill="black" stroke="black" points="291.754,-1514.04 284.984,-1505.89 285.195,-1516.48 291.754,-1514.04"/>
<text text-anchor="middle" x="324" y="-1528.3" font-family="Times,serif" font-size="14.00">address to</text>
</g>
<!-- task_struct&#45;&gt;file_table -->
<g id="edge21" class="edge"><title>task_struct:flip&#45;&gt;file_table</title>
<path fill="none" stroke="black" d="M309,-1356C369.08,-1356 326.348,-1275.86 286.082,-1216.04"/>
<polygon fill="black" stroke="black" points="288.952,-1214.04 280.427,-1207.74 283.167,-1217.98 288.952,-1214.04"/>
</g>
<!-- block_device -->
<g id="node10" class="node"><title>block_device</title>
<polygon fill="grey" stroke="grey" points="288,-110 192,-110 192,-74 288,-74 288,-110"/>
<text text-anchor="middle" x="240" y="-88.3" font-family="Times,serif" font-size="14.00">block devices</text>
</g>
<!-- m_inode&#45;&gt;block_device -->
<g id="edge8" class="edge"><title>m_inode&#45;&gt;block_device</title>
<path fill="none" stroke="black" stroke-dasharray="1,5" d="M240,-148.884C240,-138.19 240,-128.504 240,-120.315"/>
<polygon fill="black" stroke="black" points="243.5,-120.119 240,-110.119 236.5,-120.119 243.5,-120.119"/>
</g>
<!-- hard_drive -->
<g id="node11" class="node"><title>hard_drive</title>
<polygon fill="grey" stroke="grey" points="179,-36 105,-36 105,-0 179,-0 179,-36"/>
<text text-anchor="middle" x="142" y="-14.3" font-family="Times,serif" font-size="14.00">hard drive</text>
</g>
<!-- block_device&#45;&gt;hard_drive -->
<g id="edge11" class="edge"><title>block_device&#45;&gt;hard_drive</title>
<path fill="none" stroke="black" d="M216.775,-73.937C203.932,-64.5012 187.786,-52.6389 173.788,-42.3541"/>
<polygon fill="black" stroke="black" points="175.529,-39.2902 165.398,-36.19 171.384,-44.9314 175.529,-39.2902"/>
</g>
<!-- floppy_drive -->
<g id="node12" class="node"><title>floppy_drive</title>
<polygon fill="grey" stroke="grey" points="283,-36 197,-36 197,-0 283,-0 283,-36"/>
<text text-anchor="middle" x="240" y="-14.3" font-family="Times,serif" font-size="14.00">floppy drive</text>
</g>
<!-- block_device&#45;&gt;floppy_drive -->
<g id="edge12" class="edge"><title>block_device&#45;&gt;floppy_drive</title>
<path fill="none" stroke="black" d="M240,-73.937C240,-65.8072 240,-55.8761 240,-46.7047"/>
<polygon fill="black" stroke="black" points="243.5,-46.4406 240,-36.4407 236.5,-46.4407 243.5,-46.4406"/>
</g>
<!-- other_drive -->
<g id="node13" class="node"><title>other_drive</title>
<polygon fill="grey" stroke="grey" points="355,-36 301,-36 301,-0 355,-0 355,-36"/>
<text text-anchor="middle" x="328" y="-14.3" font-family="Times,serif" font-size="14.00">others</text>
</g>
<!-- block_device&#45;&gt;other_drive -->
<g id="edge13" class="edge"><title>block_device&#45;&gt;other_drive</title>
<path fill="none" stroke="black" d="M260.855,-73.937C272.279,-64.5902 286.612,-52.8625 299.1,-42.6456"/>
<polygon fill="black" stroke="black" points="301.467,-45.2313 306.99,-36.19 297.034,-39.8136 301.467,-45.2313"/>
</g>
</g>
</svg>
